<svg height="480" viewBox="0 0 640 480" width="640" xmlns="http://www.w3.org/2000/svg"><g fill="none" fill-rule="evenodd"><path d="m.45586314 479.282988h638.64933086v-479.282988h-638.64933086z" fill="#006"/><path d="m319.780927 186.06971 107.076081 53.571784 212.249082-106.191535v-107.1425731zm-319.32516339-52.619751 212.24908239 106.191535 107.076081-53.571784-319.32516339-159.7623241zm319.32516339 159.763319 319.325163 159.762324v-107.143569l-212.249082-106.190539zm-319.32516339 52.618755v107.143569l319.32516339-159.762324-107.076081-53.571784z" fill="#fff"/><path d="m239.972728-.00039834v159.79219934h-239.51626766v159.699585h239.51626766v159.791203h159.616796v-159.791203h239.516268v-159.699585h-239.516268v-159.79219934z" fill="#fff"/><path d="m271.877574-.00039834v191.71419134h-271.42171086v95.855601h271.42171086v191.713195h95.806905v-191.713195h271.421711v-95.855601h-271.421711v-191.71419134zm136.225443 159.79219934h71.387372l159.615801-79.8721993v-35.7231536zm-407.64715386-44.137096 88.22842926 44.137096h71.3873716l-159.61580086-79.8721993zm479.03452586 203.836681 159.615801 79.872199v-35.7361l-88.227434-44.136099zm-319.418725 0-159.61580086 79.872199v35.735104l231.09673386-115.607303z" fill="#c00"/></g></svg>