<svg height="480" viewBox="0 0 640 480" width="640" xmlns="http://www.w3.org/2000/svg"><g fill="none" fill-rule="nonzero"><path d="m0 0h639.6v53.3h-639.6z" fill="#0d5eaf"/><path d="m0 53.3h639.6v53.3h-639.6z" fill="#fff"/><path d="m0 106.6h639.6v53.3h-639.6z" fill="#0d5eaf"/><path d="m0 159.9h639.6v53.3h-639.6z" fill="#fff"/><path d="m0 213.2h639.6v53.3h-639.6z" fill="#0d5eaf"/><path d="m0 266.5h639.6v53.3h-639.6z" fill="#fff"/><path d="m0 319.8h639.6v53.3h-639.6z" fill="#0d5eaf"/><path d="m0 373.1h639.6v53.3h-639.6z" fill="#fff"/><path d="m0 426.4h639.6v53.3h-639.6z" fill="#0d5eaf"/><path d="m0 0h266.5v266.5h-266.5z" fill="#0d5eaf"/><g fill="#fff"><path d="m106.6 0h53.3v266.5h-53.3z"/><path d="m0 106.6h266.5v53.3h-266.5z"/></g></g></svg>