<svg height="480" viewBox="0 0 640 480" width="640" xmlns="http://www.w3.org/2000/svg"><g fill="none" fill-rule="evenodd"><g fill-rule="nonzero"><path d="m320 0h320v480h-320z" fill="#ce0000"/><path d="m0 0h320v480h-320z" fill="#fff"/></g><g transform="translate(51.544 50.7286)"><path d="m103.58928 91.1202c0 1.43874-1.43874 2.3979-3.1972 2.3979-1.91832 0-3.1972-.95916-3.1972-2.23804s1.27888-2.3979 3.1972-2.3979c1.75846 0 3.1972 1.11902 3.1972 2.3979z" fill="#f1eeee"/><path d="m1.11902 79.93v59.46792h59.62778c0 9.91132 9.91132 19.82264 19.82264 19.82264v59.46792h59.62778v-59.46792c9.91132 0 19.82264-9.91132 19.82264-19.82264h59.46792v-59.46792h-59.62778c0-9.91132-9.91132-19.82264-19.82264-19.82264v-59.46792h-59.46792v59.46792c-10.07118 0-19.9825 9.91132-19.9825 19.82264z" fill="#c00"/><path d="m3.1972 81.84832v55.63128h59.46792c0 9.91132 9.91132 19.82264 19.82264 19.82264v59.46792h55.47142v-59.30806c9.91132 0 19.82264-9.91132 19.82264-19.82264h59.62778v-55.63128h-59.46792c0-9.91132-9.91132-19.82264-19.82264-19.82264v-59.62778h-55.63128v59.46792c-9.91132 0-19.82264 9.91132-19.82264 19.82264z" fill="#ffe600"/><path d="m5.11552 83.9265v51.47492h59.46792c0 9.91132 9.91132 19.82264 19.82264 19.82264v59.46792h51.63478v-59.46792c9.91132 0 19.82264-9.91132 19.82264-19.82264h59.46792v-51.47492h-59.46792c0-9.91132-9.91132-19.82264-19.82264-19.82264v-59.46792h-51.63478v59.30806c-9.91132 0-19.82264 9.91132-19.82264 19.82264h-59.46792z" fill="#707070"/><path d="m7.1937 85.84482v47.63828h59.46792c0 9.91132 9.91132 19.82264 19.82264 19.82264v59.30806h47.47842v-59.46792c9.91132 0 19.82264-9.91132 19.82264-19.82264h59.46792v-47.63828h-59.46792c0-9.91132-9.91132-19.82264-19.82264-19.82264v-59.30806h-47.47842v59.46792c-9.91132 0-19.82264 9.91132-19.82264 19.82264h-59.62778z" fill="#a0a0a0"/><g fill-rule="nonzero"><g transform="translate(59.1482 59.1482)"><path d="m27.81564 1.91832c3.35706 3.51692.63944 11.9895-6.3944 19.02334s-15.34656 9.5916-18.86348 6.3944c-3.51692-3.67678-.63944-12.14936 6.3944-19.1832s15.34656-9.5916 18.86348-6.23454z" fill="#d0d0d0"/><path d="m23.49942 6.07468c3.51692 3.51692 2.55776 10.07118-2.07818 14.86698s-11.1902 5.5951-14.70712 2.07818-2.55776-10.07118 2.07818-14.70712 11.1902-5.5951 14.70712-2.23804z" fill="#808080"/><path d="m6.07468 16.62544 1.27888-1.27888 5.5951 2.71762-2.71762-5.5951 1.43874-1.43874 5.5951 11.1902zm8.31272-8.31272 1.5986-1.5986 8.31272 8.63244-1.43874 1.27888z" fill="#d0d0d0"/></g><g transform="translate(131.0852 59.1482)"><path d="m27.65578 27.1762c-3.51692 3.51692-11.9895.63944-18.86348-6.3944-6.87398-7.03384-9.91132-15.34656-6.3944-18.86348s11.9895-.63944 19.02334 6.3944 9.5916 15.34656 6.3944 18.86348z" fill="#d0d0d0"/><path d="m23.49942 23.01984c-3.51692 3.51692-10.07118 2.55776-14.70712-2.07818s-5.5951-11.1902-2.23804-14.70712c3.51692-3.51692 10.23104-2.55776 14.86698 2.07818s5.5951 11.1902 2.07818 14.70712z" fill="#808080"/><path d="m12.94866 5.43524 1.43874 1.43874-2.87748 5.5951 5.5951-2.87748 1.5986 1.5986-11.35006 5.43524zm8.47258 8.47258 1.27888 1.27888-8.31272 8.47258-1.43874-1.43874z" fill="#d0d0d0"/></g><g transform="translate(131.0852 131.0852)"><path d="m2.3979 27.1762c-3.51692-3.51692-.63944-11.9895 6.3944-19.02334s15.34656-9.75146 18.86348-6.3944c3.51692 3.51692.63944 11.9895-6.3944 19.02334s-15.34656 9.75146-18.86348 6.3944z" fill="#d0d0d0"/><path d="m6.71412 22.85998c-3.51692-3.51692-2.55776-10.07118 2.07818-14.70712s11.1902-5.5951 14.70712-2.07818 2.55776 10.07118-2.07818 14.70712-11.1902 5.5951-14.86698 2.07818z" fill="#808080"/><path d="m24.13886 12.30922-1.43874 1.5986-5.5951-2.87748 2.87748 5.5951-1.43874 1.27888-5.5951-11.1902zm-8.15286 8.47258-1.5986 1.43874-8.31272-8.47258 1.43874-1.43874z" fill="#d0d0d0"/></g><g transform="translate(59.1482 131.0852)"><path d="m2.55776 1.91832c3.51692-3.51692 11.9895-.63944 18.86348 6.23454s9.75146 15.50642 6.3944 18.86348c-3.51692 3.51692-11.9895.7993-19.02334-6.23454-7.03384-7.03384-9.5916-15.50642-6.3944-18.86348z" fill="#d0d0d0"/><path d="m6.71412 6.07468c3.51692-3.51692 10.07118-2.55776 14.70712 2.07818s5.5951 11.1902 2.07818 14.70712c-3.35706 3.51692-10.07118 2.55776-14.70712-2.07818s-5.5951-11.1902-2.07818-14.70712z" fill="#808080"/><path d="m17.26488 23.65928-1.43874-1.5986 2.87748-5.43524-5.5951 2.71762-1.5986-1.43874 11.35006-5.5951-5.5951 11.1902zm-8.47258-8.47258-1.27888-1.43874 8.31272-8.31272 1.43874 1.27888z" fill="#d0d0d0"/></g></g><path d="m151.989074 109.699829c0 22.941877-18.638287 41.631112-41.649192 41.631112-23.0109058 0-41.5945349-18.63328-41.5945349-41.631112 0-22.9978317 18.6382869-41.6311117 41.6491919-41.6311117 23.010906 0 41.649193 18.63328 41.649193 41.6311117z" stroke="#707070" stroke-width=".7993"/><path d="m141.879986 109.615481c0 17.479556-14.200443 31.718999-31.73237 31.718999-17.5319257 0-31.6907259-14.19681-31.6907259-31.718999 0-17.5221892 14.2004437-31.7189993 31.7323699-31.7189993 17.531926 0 31.73237 14.1968101 31.73237 31.7189993z" stroke="#707070" stroke-width=".7993"/><g fill-rule="nonzero" transform="translate(83.1272 83.1272)"><g fill="#d0d0d0"><path d="m13.26838 60.26722c0 1.103603-.894647 1.99825-1.99825 1.99825s-1.99825-.894647-1.99825-1.99825.894647-1.99825 1.99825-1.99825 1.99825.894647 1.99825 1.99825zm31.65228 0c0 1.103603-.894647 1.99825-1.99825 1.99825s-1.99825-.894647-1.99825-1.99825.894647-1.99825 1.99825-1.99825 1.99825.894647 1.99825 1.99825zm-19.1832 0v2.07818h-2.55776c-2.71762 0-2.71762 2.07818 0 2.07818h2.55776v1.91832c0 2.23804 2.3979 2.3979 2.55776.15986v-2.23804h2.71762c2.71762 0 2.71762-1.91832 0-1.91832h-2.55776v-2.07818c0-2.07818-2.71762-2.07818-2.71762 0z"/><path d="m17.26488 30.85298v1.27888s-.63944.7993-4.63594 1.11902-4.63594 0-4.63594 0c.15986 1.11902.95916 3.03734.63944 5.27538.15986 2.71762-.63944 5.11552-.63944 5.11552 0 .15986-.47958.31972-1.27888.15986.63944-.63944.63944-2.23804.63944-4.7958 0-2.23804-2.3979-5.91482-1.91832-6.87398s11.82964-1.27888 11.82964-1.27888zm15.66628-4.15636 10.3909-.15986s1.5986 3.1972 1.43874 4.7958c0 1.5986-.63944 3.1972-1.27888 2.3979-.7993-.7993.31972-.63944.47958-2.3979 0-1.91832-1.27888-3.67678-1.27888-3.67678s-2.87748 1.11902-7.03384.95916c-4.15636-.31972-2.23804-1.91832-2.71762-1.91832z" stroke="#707070" stroke-width=".5"/><path d="m34.21004 29.73396c3.83664-.15986 6.3944.31972 6.3944.31972s1.5986 3.1972 1.5986 4.7958c-.15986 1.5986-.63944 3.1972-1.43874 2.3979-.63944-.63944.31972-.47958.47958-2.3979 0-1.75846-1.27888-3.67678-1.27888-3.67678s-2.71762 1.11902-6.87398.95916c-4.15636-.31972-2.87748-.47958-3.35706-.63944-.47958 0-.63944 1.27888-6.87398 1.43874-6.3944 0-9.5916-1.43874-9.5916-1.43874s-.63944.95916-4.47608 1.27888h-4.7958c.15986.95916.95916 2.87748.7993 5.27538 0 2.55776-.7993 5.11552-.7993 5.11552h-1.11902c.63944-.47958.47958-2.23804.63944-4.63594 0-2.3979-2.55776-5.91482-2.07818-7.03384.63944-.95916 3.51692 0 3.9965-.47958.47958-.63944-2.55776-4.31622-1.91832-7.67328.47958-3.35706 3.83664-2.3979 7.83314-2.3979 3.9965.15986 12.7888 1.27888 15.02684 0 2.23804-1.11902 1.27888-5.43524 3.1972-8.15286 1.43874-1.75846 3.35706-2.3979 5.27538-2.3979 1.43874 0 3.1972 4.7958 3.1972 5.91482l-.47958.63944h-.63944v.47958c-1.5986.15986-1.75846-1.27888-2.71762-2.23804-.31972 1.5986 1.27888 7.03384 1.27888 10.55076 0 2.87748-1.11902 4.15636-1.27888 3.9965z" stroke="#707070" stroke-width=".5"/><path d="m21.5811 24.61844c0 1.11902-4.95566 3.83664-5.43524 4.7958-.31972 1.11902 1.27888 1.5986.7993 2.23804s-.95916.31972-1.11902.47958l-1.91832-3.9965s4.7958-2.23804 4.63594-3.1972-3.51692-1.5986-4.15636-3.83664-.31972-6.87398-.7993-7.83314-6.3944-1.91832-6.3944-3.1972c0-1.5986 6.07468-5.43524 6.71412-6.07468s1.27888.63944.63944 1.11902c-.63944.63944-5.27538 4.31622-5.27538 4.7958 0 .63944 3.83664 1.27888 5.11552 1.27888 1.43874 0 2.07818-.63944 2.07818-1.27888 0-.47958-1.43874-.47958-1.43874-1.5986s.7993-1.91832 2.07818-1.91832c.63944 0 1.91832.7993 1.91832 1.75846s-1.11902 1.11902-1.27888 1.75846c-.15986.7993 1.27888 1.27888 2.55776 1.27888s5.75496 3.35706 6.3944 3.9965c.7993.47958 1.43874.47958.7993 1.11902s-.31972 1.27888-.95916.63944c-.3112735-.3076622-.5324083-.6946481-.63944-1.11902 0-.47958-4.7958-2.87748-5.5951-2.3979-.63944.63944 0 7.67328 0 8.31272 0 1.11902 1.43874 1.11902 1.27888 2.87748z" stroke="#707070" stroke-width=".5"/></g><path d="m13.26838 11.03034h7.993v8.15286h-7.993z" fill="#a7a7a7"/><rect fill="#808080" height="1" rx=".5" transform="matrix(.53202643 .84672775 -.84672775 .53202643 29.538673 -11.171327)" width="48.916874" x=".417317" y="20.33793"/><path d="m15.3375135 4.63054473c0 .6484727-.5875848 1.1741637-1.3124074 1.1741637s-1.3124075-.525691-1.3124075-1.1741637c0-.64847271.5875849-1.17416371 1.3124075-1.17416371s1.3124074.525691 1.3124074 1.17416371z" fill="#d0d0d0" stroke="#707070" stroke-width=".7993"/><path d="m38.20654 15.1867c0 .47958-3.1972 1.11902-6.55426 1.11902-3.51692 0-6.55426-.63944-6.55426-1.11902s3.03734.7993 6.3944.7993c3.67678 0 6.71412-1.27888 6.71412-.7993z" fill="#808080"/><path d="m13.90782 19.1832h6.55426v2.3979h-6.3944z" fill="#a7a7a7"/><path d="m35.1692 13.42824c-.63944 1.27888-1.11902 2.07818-1.27888 1.91832 0 0 .31972-1.27888.95916-2.3979l1.27888-1.91832c.15986.15986-.31972 1.27888-.95916 2.3979zm1.5986 3.1972-1.27888.7993c.3314063-.5561886.7653817-1.0444109 1.27888-1.43874.7993-.63944 1.43874-.95916 1.43874-.7993l-1.27888 1.27888z" fill="#808080"/><path d="m36.12836 15.02684.7993 1.91832-1.27888-1.5986-.7993-1.91832zm-.63944 5.11552s-1.91832.31972-4.47608.31972-4.63594-.15986-4.63594-.31972l4.63594-.31972c2.55776 0 4.47608 0 4.47608.31972zm-15.02684-.63944c0 .15986-1.43874.31972-3.1972.31972-1.91832 0-3.1972 0-3.1972-.31972 0 0 1.27888-.31972 3.1972-.31972 1.75846 0 3.1972.15986 3.1972.31972z" fill="#808080"/><path d="m6.07468 39.965s1.11902 2.55776 5.75496 2.55776c4.47608 0 6.07468-.7993 4.31622-2.07818s-5.43524-.95916-4.7958.15986c.31972 1.27888-1.43874 1.5986-1.75846.7993-.47958-.7993-2.07818-3.35706.7993-3.51692 3.03734-.15986 9.27188-1.11902 10.87048.63944s-1.75846 3.1972.7993 3.67678c2.3979.31972 2.87748-.47958 7.1937-.63944 4.31622-.31972 6.07468.7993 7.51342.63944 1.5986 0 1.27888-2.71762 0-3.1972-1.11902-.7993-3.35706-.95916-3.9965-1.5986-.47958-.7993-2.07818 0-1.91832-.95916 0-.7993 2.23804.47958 2.23804.15986l.31972-.31972h-.47958l.15986-.31972-.31972.15986.15986-.31972s-.47958.31972-.47958 0h-.31972c.31972-.31972.15986-.31972 0-.47958h-.47958v-.47958c-.31972 0-.31972 0-.47958.31972v-.7993c0-.15986.31972-.31972.7993-.31972 1.11902 0 1.5986 1.27888 2.07818 1.27888.31972 0 .7993-1.27888 2.23804-.7993l2.3979.95916c.7993.47958-.47958.95916 0 1.5986s3.35706 2.71762 2.55776 5.11552c-.7993 2.23804-3.1972 2.55776-3.1972 3.51692-.31972.95916 6.87398.63944 8.63244.95916 1.2227472.2217691 2.311671.9095104 3.03734 1.91832l-3.1972.15986s-1.5986-.7993-5.5951-.95916c-3.9965 0-5.43524-1.5986-7.03384-1.91832l-6.3944.31972-4.7958-.47958c-.95916-.15986-6.71412 2.55776-6.71412 3.1972h-3.83664s.47958-1.43874 2.71762-1.5986c2.07818-.31972 4.31622-1.27888 4.15636-1.91832l.63944-4.15636c0-.95916.95916-1.5986.7993-1.91832-.15986-.63944-2.71762-1.11902-5.11552-1.11902s-4.95566.15986-5.43524.63944c-.31972.63944 0 2.3979.47958 2.07818.47958 0-.15986-1.27888.31972-1.43874 1.035871-.3183311 2.1135196-.4799784 3.1972-.47958 1.27888 0 3.35706 1.11902 3.35706 1.5986 0 .15986.63944 1.27888-.31972 1.75846-1.5956069.5289228-3.2780537.7460127-4.95566.63944-1.6703042-.0871119-3.30390368-.5227384-4.7958-1.27888-.63944-.47958-1.11902-1.5986-1.11902-1.75846z" fill="#d0d0d0" stroke="#808080" stroke-width=".5"/><path d="m35.1692 35.9685c0 .1713375-.0914074.3296598-.23979.4153286-.1483826.0856687-.3311974.0856687-.47958 0-.1483826-.0856688-.23979-.2439911-.23979-.4153286.0000001-.2648647.2147153-.4795799.47958-.4795799s.4795799.2147152.47958.4795799z" fill="#000"/></g><path d="m143.0747 111.58228 2.55776.47958 4.31622-2.87748-.31972 1.5986-2.23804 1.43874-1.27888.63944.7993 1.27888 1.43874 2.23804-.31972 1.5986-2.71762-4.63594-2.55776-.47958zm-4.31622-18.86348 4.7958-2.23804-1.27888-2.87748.63944-.31972 3.1972 7.03384-.47958.31972-1.43874-3.03734-4.7958 2.3979zm-7.67328-9.27188 4.47608-4.15636.95916.95916v7.03384l3.51692-3.1972.7993.95916-4.47608 4.15636-.95916-.95916v-7.03384l-3.51692 3.1972zm-19.82264-7.993.7993-6.07468h1.27888l-.7993 5.5951 4.7958.47958v.7993zm-9.75146.95916-1.11902-6.07468 1.27888-.31972.95916 5.43524 4.7958-.95916v.7993zm-18.06418 8.7923-.47958-.47958 3.1972-2.55776 1.5986 1.5986c-.3433516.6910089-.7730839 1.3356074-1.27888 1.91832-.4147921.587794-.8977352 1.1243974-1.43874 1.5986-.6749793.5400683-1.4300686.9715478-2.23804 1.27888-.7993.15986-1.5986.31972-2.07818 0-.6116461-.0655314-1.1791872-.3493019-1.5986-.7993-.3235794-.469373-.4913538-1.028621-.47958-1.5986 0-.63944.15986-1.43874.63944-2.07818.31972-.63944.95916-1.27888 1.5986-1.75846.5325287-.4512504 1.1241386-.8277295 1.75846-1.11902l1.43874-.31972c.31972 0 .7993 0 1.11902.31972l-.63944.7993c-.3025792-.1283886-.6312969-.1831749-.95916-.15986l-.95916.15986c-.4072814.2148541-.7836883.4837162-1.11902.7993-.47958.31972-.95916.63944-1.11902 1.11902-.2695005.2783362-.4861683.6033379-.63944.95916v.7993c0 .47958.15986.95916.47958 1.27888l1.11902.7993 1.5986-.15986c1.4711453-.6211809 2.6648972-1.7580875 3.35706-3.1972l-.63944-.95916zm-.15986 44.28122-5.11552 3.67678-3.83664-5.43524.63944-.47958 3.1972 4.31622 1.43874-1.11902-2.55776-3.67678.47958-.31972 2.71762 3.67678 2.23804-1.5986zm-7.51342-7.993c.7993-.15986 1.27888-.63944 1.5986-1.43874v-2.3979c-.2522093-.825289-.7550475-1.55161-1.43874-2.07818-.47958-.47958-1.27888-.63944-1.91832-.47958-.5059277.110454-.9578968.392935-1.27888.7993-.15986.31972-.47958.7993-.47958 1.27888l.15986 1.75846c.31972.95916.63944 1.5986 1.27888 2.23804.47958.47958 1.27888.63944 2.07818.31972zm.47958 1.27888c-.9544907.304012-1.998832.058284-2.71762-.63944-.8529536-.768206-1.4639433-1.768007-1.75846-2.87748-.31972-.95916-.31972-1.5986-.31972-2.55776s.31972-1.27888.63944-1.75846c.3640536-.569602.9387948-.971921 1.5986-1.11902.5362057-.119791 1.0967333-.063739 1.5986.15986.63944.31972 1.11902.63944 1.5986 1.27888.9817456 1.396256 1.4350381 3.096103 1.27888 4.7958-.0579379.631488-.2782175 1.237257-.63944 1.75846-.31972.47958-.7993.7993-1.27888.95916zm.47958-12.46908h-6.3944v-4.47608l.31972-1.91832.63944-1.11902c.2622331-.233795.6090968-.349416.95916-.31972.47958 0 .7993.15986 1.11902.63944.15986.47958.47958 1.11902.47958 2.07818.2108995-.674815.5970388-1.281606 1.11902-1.75846l1.75846-1.5986v1.5986l-1.27888 1.11902-.95916.95916c-.1905027.188344-.3521102.403821-.47958.63944-.0267482.212307-.0267482.427133 0 .63944v.63944l-.15986 1.5986h2.87748zm-3.51692-1.43874v-2.71762c.0541245-.478053.0541245-.960687 0-1.43874-.0569346-.23455-.166241-.453163-.31972-.63944-.1145338-.162509-.2855205-.2765-.47958-.31972-.31972 0-.63944.15986-.7993.47958l-.31972 1.5986v3.1972h2.07818zm17.10502-27.01634v-7.1937l1.27888-.7993 6.55426 3.1972-1.27888.7993-1.91832-.95916-3.35706 2.07818v2.23804zm1.11902-3.67678 2.87748-1.5986-1.5986-.95916c-.4956585-.2364035-.9761627-.5033503-1.43874-.7993l.15986 1.27888zm29.73396-1.91832 6.71412-2.71762 1.11902.7993-.47958 7.35356-1.11902-.95916.15986-2.07818-3.1972-2.3979-2.07818.7993zm3.83664-.31972 2.71762 1.91832v-1.91832c.074099-.5388501.180869-1.0727004.31972-1.5986-.34066.3090357-.716204.5772815-1.11902.7993zm16.46558 22.85998 6.07468-1.43874.95916 4.31622.31972 1.91832-.31972 1.11902c-.165795.315127-.455465.546863-.7993.63944-.47958 0-.95916 0-1.27888-.31972-.528235-.535282-.913087-1.195029-1.11902-1.91832.02671.265764.02671.533536 0 .7993l-.63944 1.27888-1.27888 1.91832-.31972-1.5986.95916-1.5986.63944-.95916c.216483-.391036.326717-.831974.31972-1.27888-.034843-.269792-.088256-.53686-.15986-.7993l-.31972-1.43874-2.71762.63944zm3.67678.47958.63944 2.71762c0 .47958.31972.95916.47958 1.27888 0 .31972.31972.47958.47958.63944l.63944.15986c.15986 0 .47958-.31972.47958-.63944.128724-.525093.128724-1.073507 0-1.5986l-.7993-3.03734z" fill="#d0d0d0" fill-rule="nonzero"/></g></g></svg>