<svg height="480" viewBox="0 0 640 480" width="640" xmlns="http://www.w3.org/2000/svg"><g fill="none" fill-rule="evenodd"><path d="m0 480h640v-480h-640z" fill="#fff"/><path d="m0 480h640v-160.031h-640z" fill="#de2918"/><path d="m0 319.969h640v-159.938h-640z" fill="#08399c"/><g transform="translate(86 73)"><path d="m142.2251 14.1875c-3.75 57.75-6 89.438-14.719 104.063-9.562 15.75-18.75 27.281-55.969 41.249-37.125-13.968-46.312-25.499-55.875-41.249-8.812-14.625-10.968-46.313-14.718-104.063l5.437-1.875c11.063-3.375 19.313-6.094 25.406-7.313 8.719-1.875 16.219-3.937 39.657-4.406 23.437.375 30.937 2.625 39.656 4.5 6 1.313 14.625 3.75 25.594 7.219z" fill="#de2918"/><path d="m136.7876 12.3125c-3.563 57.656-6.562 84.094-11.25 96.75-9 21.75-23.25 33.656-54 45-30.75-11.344-45-23.25-54.094-45-4.687-12.75-7.5-39.094-11.062-96.844 10.875-3.375 19.312-6 25.406-7.218 8.719-1.876 16.219-4.032 39.656-4.407 23.438.375 30.938 2.531 39.657 4.407 6.093 1.218 14.812 3.749 25.687 7.218z" fill="#08399c"/><path d="m71.5376 29.9375 1.406 3.469 6.563.937-4.219 2.531 4.031 2.719-5.906.938-1.875 3.187-1.875-3.281-5.625-.75 3.75-2.813-3.937-2.531 6.281-.937z" fill="#fc0"/><path d="m123.3813 95.375-3.656-2.813-2.531-4.312-5.063-4.406-2.719-4.407-5.062-4.593-2.438-4.406-2.812-2.157-1.688-1.781-4.687 4.031-2.438 4.407-3.094 2.812-3.468-2.719-2.532-4.5-9.656-17.156-9.656 17.156-2.531 4.5-3.469 2.719-3.094-2.812-2.531-4.407-4.594-4.031-1.781 1.688-2.719 2.25-2.437 4.406-5.063 4.593-2.719 4.407-5.062 4.406-2.531 4.312-3.657 2.813c2.062 12.904 8.167 24.821 17.438 34.031 6.187 5.907 18.75 13.875 34.312 19.219 12.69-3.988 24.43-10.528 34.501-19.219 5.437-5.625 15.562-18.093 17.437-34.031" fill="#fff"/><path d="m55.9751 5.6563 1.5 3.469 6.563.843-4.219 2.532 4.031 2.719-5.906.937-1.875 3.188-1.875-3.188-5.625-.844 3.75-2.812-3.938-2.532 6.282-.937 1.406-3.469zm30.937 0 1.501 3.469 6.562.937-4.312 2.531 4.125 2.719-5.907.938-1.875 3.187-1.875-3.281-5.625-.75 3.75-2.813-3.937-2.531 6.187-.937 1.5-3.469z" fill="#fc0"/><path d="m34.3188 126.2188 6.937-.469 7.782-3.75h8.812l7.688 3.75 6 .469 6-.469 7.687-3.75h8.813l7.781 3.75 7.031.469 4.5-5.625h-.093l-4.875 1.313-6.469-.469-7.781-3.75h-8.813l-7.687 3.75-6 .562-6.094-.562-7.594-3.75h-8.906l-7.875 3.75-6.469.562-4.687-1.218v.187l4.218 5.25zm81-8.906h-6.937l-6.563-.469-7.781-3.75h-8.813l-7.593 3.75-6.094.562-6-.562-7.594-3.75h-8.906l-7.875 3.75-6.469.562-7.125-.093-3.375-5.813.094-.187 10.5 1.781 6.468-.469 7.782-3.843h8.812l7.688 3.749 6 .563 6.094-.563 7.593-3.749h8.813l7.875 3.749 6.469.563 10.125-1.875.187.375-3.469 5.719z" fill="#08399c"/></g></g></svg>