<svg height="26" viewBox="0 0 112 26" width="112" xmlns="http://www.w3.org/2000/svg"><g fill="none" fill-rule="evenodd"><g fill="#003893"><path d="m103.500498 17.2242744c-3.164745 0-5.1407445-2.5473953-5.1407445-5.5809302 0-3.03172094 2.0195345-5.62506978 5.0524655-5.62506978 1.448744 0 3.033534.70502325 3.822604 1.75953488l4.174512-4.83358139c-1.714791-1.75832558-5.007116-2.94404651-8.128326-2.94404651-6.8095811 0-12.2169764 4.52581395-12.2169764 11.6431628 0 7.2533953 5.3638604 11.6473953 12.2617204 11.6473953 3.207675 0 6.282931-1.0545116 8.083582-2.8152558l-3.997349-4.8753023c-.878558 1.0551163-2.463349 1.624093-3.911488 1.624093"/><path d="m80.5074884 22.5856558h7.2098604v-21.88293022h-7.2098604z"/><path d="m12.3481256 6.02051163c1.4511628 0 3.0317209.70260465 3.8238139 1.75530232l4.173907-4.83176744c-1.7135814-1.75832558-5.0101395-2.94404651-8.1289302-2.94404651-6.81260467 0-12.21697677 4.52581395-12.21697677 11.6455814 0 7.2473488 5.36023256 11.6431628 12.26051167 11.6431628 3.2064651 0 6.2841395-1.0563256 8.0853953-2.8110233l-3.9991628-4.8795349c-.8797674 1.0545117-2.4597209 1.6271163-3.9108837 1.6271163-3.16172093 0-5.14074419-2.5498139-5.14074419-5.5797209 0-3.03413954 2.02255814-5.62506977 5.05306979-5.62506977"/><path d="m68.4732372.08737209c-3.0317209 0-5.5349767 1.7135814-6.5459535 3.64604651h-.0864651v-3.03051162h-6.9885581v12.50660462c1.6065581 1.7069303 2.6157209 4.0094419 2.6157209 6.5876744 0 .9746977-.1475349 1.9088838-.4123721 2.7886512h5.0464186v-11.8638605c0-2.50627903 1.3181395-4.70358135 3.8673488-4.70358135 2.5933489 0 3.25 2.19730232 3.25 4.61348835v11.9539535h7.2570233v-13.53390697c0-4.39460465-2.1102326-8.96455814-8.0031628-8.96455814"/><path d="m38.2713953 19.8932651c0-1.0025116.1584187-1.9735814.4492559-2.8884186h-7.9566047l10.5934884-10.89702324v-5.40497675h-18.6770698v5.53618605h9.8878605l-10.2814884 10.72167444v5.6250697h16.3812093c-.2533488-.8489302-.3966512-1.7492558-.3966512-2.6925116"/></g><path d="m47.9286419 25.7945395c-3.2681396 0-6.0592093-2.5679535-6.0592093-5.938279 0-3.3050233 2.7336279-6.059814 6.0592093-6.059814 3.2058604 0 5.9394883 2.6338605 5.9394883 5.9999535 0 3.3685116-2.7336279 5.9981395-5.9394883 5.9981395" fill="#ce1126"/></g></svg>