<svg height="480" viewBox="0 0 640 480" width="640" xmlns="http://www.w3.org/2000/svg"><g fill="none" fill-rule="nonzero"><path d="m0 0h640v480h-640z" fill="#fff"/><path d="m307.8 398.6c-.078016-.054259-.145741-.121984-.2-.2h-.1l-1.3-1.4-3.8-4.5-4.9-6.3-.6-.9-6.2-1.9-4.6-2.1 2.4-2.7 8.4 3.5 6.2 1.3 11.5 8.5-3.3 2.9c-1.174359 1.094249-2.276663 2.263359-3.3 3.5l.7-.5.8.6-1.6.2zm-42.6-12.8c-5.638642-.050244-11.161828-1.60364-16-4.5 0 0 .7-1.3 2.3-2.4 1.6-1.2 4.4-2.5 9-2.6 5.4 0 12 1.9 19.5 5.4-4.481318 2.646034-9.595876 4.028347-14.8 4zm-23.5-5.2c-1 0-2-.4-2.6-1-.567026-.692049-.945903-1.518692-1.1-2.4-.265663-1.112575-.366739-2.258095-.3-3.4.4168-.148222.857921-.216087 1.3-.2 2 0 3.6 1.7 4.3 3.4.4 1 .5 1.8.2 2.5-.2.6-1 1-1.8 1zm41.3-4.8c-13.9-2-19.8-7-22.3-10.9-2.6-4.1-2-8-2-8s.8-.2 2-.2c3.8 0 13.2 1.9 22.3 19zm-28.5-2.8c-5.9 0-10.4-1-13.4-3-1.282337-.805705-2.319792-1.946905-3-3.3-.214471-.509706-.349378-1.049332-.4-1.6 2.280118-.950459 4.72986-1.426797 7.2-1.4 7.209266.258685 14.015215 3.391582 18.9 8.7-3.4.4-6.5.6-9.3.6zm-28.7-1c-6.2 0-14.8-2-20.2-7.3 0 0 5.9-1.5 12.4-1.7h1.2c5.9 0 10.4 1.1 13.4 3.4 1 .8 1.6 1.5 1.7 2.2.1.6-.2 1.2-.8 1.7-1.4 1-3.8 1.6-7.2 1.6h-.5zm-20.3-10.5c-.783278-.014994-1.518038-.382374-2-1-.417901-.595745-.69176-1.280391-.8-2-.3-1.4-.2-2.8-.2-2.9.315157-.137534.656188-.205741 1-.2.9 0 1.6.5 2 1 .608072.555595 1.086097 1.238487 1.4 2 .2.9.3 1.6 0 2.2 0 .4-.6 1-1.3 1zm46.9-1c-1 0-2-.4-2.6-1-.567026-.692049-.945903-1.518692-1.1-2.4-.265663-1.112575-.366739-2.258095-.3-3.4.4168-.148222.857921-.216087 1.3-.2 2 0 3.7 1.7 4.3 3.4.4 1 .5 1.8.3 2.5-.3.6-1 1-2 1zm-22.8-1c-12.6-.4-19.2-4-22.4-7-1.394665-1.205805-2.548329-2.664851-3.4-4.3-.5-1-.7-1.8-.7-2s1.2-.4 3-.4h.4c4.2 0 12.9 1.8 23 13.7zm13.6-1.2c-7.197202-.782416-13.888783-4.075099-18.9-9.3-1.844702-2.018323-3.241912-4.403803-4.1-7 0 0 1.2-.3 3-.4.33323-.011741.66677-.011741 1 0 5 .1 14.3 2.4 19 16.7zm-52-5c-3.3 0-6.5-.3-9.5-1-5.3-1.4-7.6-3.4-8.6-4.9-.408809-.600625-.681811-1.283127-.8-2-.031482-.265738-.031482-.534262 0-.8 0 0 3.5-1 8.4-1.1 2.480963-.062923 4.961582.138208 7.4.6 5.10111 1.074838 9.6448 3.950143 12.8 8.1 0 0-4 1.2-9.7 1.2zm23.5-8.4c-.935439.024903-1.839788-.336836-2.5-1-.567026-.692049-.945903-1.518692-1.1-2.4-.4-1.6-.3-3.2-.3-3.4.379017-.170449.785362-.272035 1.2-.3h.1c2 0 3.6 1.8 4.3 3.5.4 1 .4 1.8.2 2.4-.3.7-1 1.1-1.9 1.1zm-17.6-2.5c-3.376033-.957129-6.605785-2.370145-9.6-4.2-4.4-2.7-9.9-7.5-10.5-15l1-.1h.3c1.3 0 4 .3 7.3 2.8 4.2 3.2 8 8.8 11.5 16.5zm11.5-.4c-2.757842-1.255602-5.318058-2.906268-7.6-4.9-5.852392-5.051377-10.41245-11.428601-13.3-18.6 0 0 .9-.5 2.3-.6.066651-.002021.133349-.002021.2 0h.4c2 0 4.9.9 8.1 4.4 3.8 4 7.1 10.6 10 19.7zm-29.9-.9c-3.9 0-5.2-2-5.6-3-.387499-.94939-.525213-1.982249-.4-3 .65641-.145532 1.32777-.212668 2-.2 2.518184-.079309 4.926603 1.032269 6.5 3 .2.4.8 1.4.3 2.3-.4.6-1.3 1-2.8 1zm-8.5-10.8c-3.014776.032628-6.026525-.201619-9-.7-3.4-.6-5.3-3.5-6.4-5.9-1-2.5-1.4-5-1.4-5 10.6.3 15.7 3.4 18 6 1.452365 1.494447 2.366952 3.429149 2.6 5.5 0 0-1.6.2-3.8.2zm11-11c-.854787-1.093651-1.655738-2.228331-2.4-3.4-1.3-2-2.4-4-2.4-5.6 0-1.7-.4-5-.6-7l-.6-4.5c.3 0 6.6 2.4 6.6 8.4s-.6 12-.6 12zm-8.2-.6h-.2c-2-.3-5.2-1.7-8.9-3.8-4-2.4-7.4-4.9-9.3-7-1.7-2-2.8-5.2-3.1-9.4-.2-3 0-5.5 0-5.8.358445-.094896.730319-.128702 1.1-.1 1.4 0 3 .6 5 2 1.856494 1.314589 3.596262 2.7867 5.2 4.4 3.2 3.2 5.7 6.4 5.7 6.4.3.4 2 3.7 3.5 6.9.701936 1.469392 1.238557 3.012176 1.6 4.6.1.6.2 1 0 1.4-.047347.165719-.154167.308145-.3.4-.131645.030005-.268355.030005-.4 0z" fill="#435125"/><path d="m435.488889 398.6c-.078016-.054259-.145741-.121984-.2-.2h-.1l-1.3-1.4-3.8-4.5-4.9-6.3-.6-.9-6.2-1.9-4.6-2.1 2.4-2.7 8.4 3.5 6.2 1.3 11.5 8.5-3.3 2.9c-1.174359 1.094249-2.276663 2.263359-3.3 3.5l.7-.5.8.6-1.6.2zm-42.6-12.8c-5.638642-.050244-11.161828-1.60364-16-4.5 0 0 .7-1.3 2.3-2.4 1.6-1.2 4.4-2.5 9-2.6 5.4 0 12 1.9 19.5 5.4-4.481318 2.646034-9.595876 4.028347-14.8 4zm-23.5-5.2c-1 0-2-.4-2.6-1-.567026-.692049-.945903-1.518692-1.1-2.4-.265663-1.112575-.366739-2.258095-.3-3.4.4168-.148222.857921-.216087 1.3-.2 2 0 3.6 1.7 4.3 3.4.4 1 .5 1.8.2 2.5-.2.6-1 1-1.8 1zm41.3-4.8c-13.9-2-19.8-7-22.3-10.9-2.6-4.1-2-8-2-8s.8-.2 2-.2c3.8 0 13.2 1.9 22.3 19zm-28.5-2.8c-5.9 0-10.4-1-13.4-3-1.282338-.805705-2.319792-1.946905-3-3.3-.214471-.509706-.349378-1.049332-.4-1.6 2.280118-.950459 4.729859-1.426797 7.2-1.4 7.209266.258685 14.015215 3.391582 18.9 8.7-3.4.4-6.5.6-9.3.6zm-28.7-1c-6.2 0-14.8-2-20.2-7.3 0 0 5.9-1.5 12.4-1.7h1.2c5.9 0 10.4 1.1 13.4 3.4 1 .8 1.6 1.5 1.7 2.2.1.6-.2 1.2-.8 1.7-1.4 1-3.8 1.6-7.2 1.6h-.5zm-20.3-10.5c-.783278-.014994-1.518038-.382374-2-1-.417902-.595745-.69176-1.280391-.8-2-.3-1.4-.2-2.8-.2-2.9.315157-.137534.656188-.205741 1-.2.9 0 1.6.5 2 1 .608072.555595 1.086097 1.238487 1.4 2 .2.9.3 1.6 0 2.2 0 .4-.6 1-1.3 1zm46.9-1c-1 0-2-.4-2.6-1-.567026-.692049-.945903-1.518692-1.1-2.4-.265663-1.112575-.366739-2.258095-.3-3.4.4168-.148222.857921-.216087 1.3-.2 2 0 3.7 1.7 4.3 3.4.4 1 .5 1.8.3 2.5-.3.6-1 1-2 1zm-22.8-1c-12.6-.4-19.2-4-22.4-7-1.394665-1.205805-2.548329-2.664851-3.4-4.3-.5-1-.7-1.8-.7-2s1.2-.4 3-.4h.4c4.2 0 12.9 1.8 23 13.7zm13.6-1.2c-7.197202-.782416-13.888783-4.075099-18.9-9.3-1.844702-2.018323-3.241912-4.403803-4.1-7 0 0 1.2-.3 3-.4.33323-.011741.66677-.011741 1 0 5 .1 14.3 2.4 19 16.7zm-52-5c-3.3 0-6.5-.3-9.5-1-5.3-1.4-7.6-3.4-8.6-4.9-.40881-.600625-.681811-1.283127-.8-2-.031482-.265738-.031482-.534262 0-.8 0 0 3.5-1 8.4-1.1 2.480963-.062923 4.961582.138208 7.4.6 5.10111 1.074838 9.6448 3.950143 12.8 8.1 0 0-4 1.2-9.7 1.2zm23.5-8.4c-.935439.024903-1.839788-.336836-2.5-1-.567026-.692049-.945903-1.518692-1.1-2.4-.4-1.6-.3-3.2-.3-3.4.379017-.170449.785361-.272035 1.2-.3h.1c2 0 3.6 1.8 4.3 3.5.4 1 .4 1.8.2 2.4-.3.7-1 1.1-1.9 1.1zm-17.6-2.5c-3.376033-.957129-6.605785-2.370145-9.6-4.2-4.4-2.7-9.9-7.5-10.5-15l1-.1h.3c1.3 0 4 .3 7.3 2.8 4.2 3.2 8 8.8 11.5 16.5zm11.5-.4c-2.757842-1.255602-5.318058-2.906268-7.6-4.9-5.852392-5.051377-10.41245-11.428601-13.3-18.6 0 0 .9-.5 2.3-.6.066651-.002021.133349-.002021.2 0h.4c2 0 4.9.9 8.1 4.4 3.8 4 7.1 10.6 10 19.7zm-29.9-.9c-3.9 0-5.2-2-5.6-3-.387499-.94939-.525214-1.982249-.4-3 .65641-.145532 1.32777-.212668 2-.2 2.518184-.079309 4.926603 1.032269 6.5 3 .2.4.8 1.4.3 2.3-.4.6-1.3 1-2.8 1zm-8.5-10.8c-3.014776.032628-6.026525-.201619-9-.7-3.4-.6-5.3-3.5-6.4-5.9-1-2.5-1.4-5-1.4-5 10.6.3 15.7 3.4 18 6 1.452365 1.494447 2.366951 3.429149 2.6 5.5 0 0-1.6.2-3.8.2zm11-11c-.854787-1.093651-1.655738-2.228331-2.4-3.4-1.3-2-2.4-4-2.4-5.6 0-1.7-.4-5-.6-7l-.6-4.5c.3 0 6.6 2.4 6.6 8.4s-.6 12-.6 12zm-8.2-.6h-.2c-2-.3-5.2-1.7-8.9-3.8-4-2.4-7.4-4.9-9.3-7-1.7-2-2.8-5.2-3.1-9.4-.2-3 0-5.5 0-5.8.358445-.094896.730319-.128702 1.1-.1 1.4 0 3 .6 5 2 1.856494 1.314589 3.596262 2.7867 5.2 4.4 3.2 3.2 5.7 6.4 5.7 6.4.3.4 2 3.7 3.5 6.9.701936 1.469392 1.238557 3.012176 1.6 4.6.1.6.2 1 0 1.4-.047347.165719-.154167.308145-.3.4-.131645.030005-.268355.030005-.4 0z" fill="#435125" transform="matrix(-1 0 0 1 721.388888 0)"/><path d="m519 76.4-1.8.7-.8.3-2.2-.1-2.2 1-3.8 2.6-.1.1-1.5.4-1.3-.6-.7.4-.3 1.5-.7 1.1-.9.6-3 .3-2.5 1.4-3.4-1-1.5.7-3.3 3-1.7.7h-.5l-2.3-.1-.9.3-1.4 1.3-2.6.2-.9.6-1.3 2.6-1.4 1.6-.8.1-.8-.3-.7.1-.3 1.7-.6.7-1.8.6-1.4 1.2-1.3.6h-2l-1.7 1-3.1.2-1.3 1.2-.3.3-.6.3-1 .6-.2.2-1.2-.2-1.4.5-.6-.8-1 .5-1.2.1-1.6-.7-1.3-.6-.9.2-.3 1.5v.2l-1 1.2-1.7 1.1-.2.3-2 2.6-3.8 4-3.2 1.6-3.3 1-2.3 1.9-6 3-9.7 4.8-2 .6-2.8.4-5 1.9-4.4 1.3-.3.1-.8.3-6.3 1.9-2.9-.4-1.7.7-4.5-.5h-3.1l-2 .4-3.7 1.8-6.3 3-2 2-3.2 1.6-3.8 1.2v-1.6l-1.3.4-1 .3-3 .4h-1.7l-1.1-.3h-.2l-6.2 2.1-7 .7-3.5 1.1h-2.6l-1.6.5-3.2.4-1.2-.3-.2-.1-9.4.4-4.3-.5-2 .5-3.5-1.2-5-.6-1.2-.3-2.6-.8-1.2.7-1 .1-2-.8h-.8l-1.8.6-1-.2-1-.8-2.1-.3-1.4-1.1-7.5 1-2-.6-6.9-2h-1l-1.4 1-2 .8-1.9.4-2.4.1-2.8-.7-2.8-1.4-1.1-.3-2.4.3h-.7l-4.4-2.3-5.6-3.5-3.8-1.9-1.5-.2-.2.7.7 2.2.3 2.3v2l-.1 1.3.3 1.1 1.4 1.6.6 1.5.4 4.2v4.3l-.7 6.8-.2 1-.8 3.6-.7 3.3-2.9 8.7-.7 1-2 1.3-4.3 3-3.2 1.8-1 .4-2.6.2h-1.6l-2-1.1-2-.5-2.6-1.9-2.8-.6-3.2-1.8-.8-1-1.7-.2-2.4-.7-.9-.3-.6-.1-3-.1-2.9-1.3-1.5-.4h-2l-2.1 1-1.1.4-1.4-.5h-1l-1 1.7-.2.3-.8.4h-1.7l-.8.3-1.1.5-1 .4-.5.2h-.3l-.5.2h-.6l-1.2-.6-.6-.3-1-.2-.5.3-.1 1.9-.5 1.1-1.6 1.4-1.6 1.4-1 1.6-3 6.7-1.9 2.7-.5.7-2 2.1-1.7 1.3-3.9 3-3.7 1.5-3.2.6h-1.6l-3-.4-2.6-.8-3-1.8-3.1-2.6-4.7-4.5-.6-.4-.2-.1-1.4-1h-1.1l-.4.8-.3 1-.2.9-.5 5v.3l.3 2.1 3.6 5 1 2.6.2.3.7 1.2.6 1 1.3 3.6-.9 2 .4 1.4-1 .8-.2 1.2 3.1 4 .7 1.7-.7 2.4-1.3 1.4-.3.3.2 1 1.4 1.4 2.5 2.2 1.3 3.2 1 1 1.2-.3.6.5h1l1 1 .6.2 1 .5.8 1 .1 3.2 1.5 3.8v2.5l1 1.5.2 1.2-.5 3.3 1.2 1 1.2-.2.8.1 1.3 1.1 1.6 2.4 1.6-.2 1 .4 4.7 4.3 1 .6.9.4 1 1 1.4-1h.2l1.6-.2.7.5 1.4.9h1.7l4 1.2 1.6.4 3.4 2.1 1.5.9.8.7 1.2 1 2.2 1 2 .4 1 .2.9.3 4.2 1.7 2.3.5 2 .8 1.6.5h1.2l1.6-1.3h1.5l1.3.2 1.3-.2 2-1.2.3-.6 1.4-.6 4.8-.6 1.4.4 3.6-1.5 2.4.6 2-.7 4.7 1 1.2.9 1.4 1.5h1.7l-.7 1.1 2 2.2 1.9 2.7.1.4 1.3 3.9 1 1.4.7 1.9v1.2l-1 .9-.2.4v.2l.2.5.4-.2.7-.4 1-.2 1.6.2 1.1.1 1.7-.8 1.2-.6 1.8.8h2l.9.3 2.4 1.1 1.2.1.4-.3.3-.6-.1-.8-1-1.1-2-2.4-.8-1.2-.6-1.7-.2-2.2-.2-1.5.3-2 .5-.7.4-1.6.1-.4 1.2-1.5 3-2 3.2-2.8 2.5-1.7 2.6-1.1v-.3l.4.1 6.6-2.3 3-.5 20 1.4.7-.2.7-1.9.3-.3.3-.2 2.2-1 1-.2 2.8.7 1.2.3 1.9-1h1.3l2.7-1.5h1.7l.7-.2 3.3-2.4 3.1-.9.8-.4.3-.2 3.3-1.7 2-1.6 1.8-1 2-.4 5-.4 1.1-1.7 2.2-.3 1.3-1.5 1.5-.6 1.1-1.6 1-1.3 1.2-.7 4.1-.3 4.8.6.7-.4 1-3.9 1.2-.7 3-4.5v-1.6l.1-1.4.5-2-.3-3.4.4-3.6 1.9-4.5 1.7-1.8 2.7-1.9 1.4-.6 2-.3h.2l.5-.2h9.2l2.3-.1 5.7 1h.4l1.9.7 2.2 1.7 2.4 2.3.4.4 1.5.7.5.2 1.2-.2 1.8-1 1.4-1 1.8-1v-.2l1.1-1.5.4-.7 3.6-1.4 4.2-.2.5-.3h.2l1.1-1.4h1l2.6 1 1.7-.4 1.4.5 1.1-.1 2-.3 2.3 1.6 1.3.2 4.5 2.6h.4l.2.1.5-.2.8-.2h.1l.1.1.6.7.7.1.8-1-.3-.6-.1-.2-1.7-.3-1.4-2.5 1.4-1.5-2.2-2.6-.4-.5v-.1l-.8-1.2-3.8-5.8-5-4-1.7-1.3-.6-.5-2.7-2.7-1.9-2.5-.2-.5-.4-.9-1.1-2.4-2-1.5-1.6-1.8-3.4-4.6-.5-.7-.8-.5h-1.7l-.1-.2h-.1v-.1l.8-.8 1-.2.3-.9-1.7-4.9v-.2l-.1-1.5 1.3-7.1.2-.9 2.4-4.7 1.4-1.2 1.6-3.1 1.4-2 1.3-1.3.2-.1 2.3-1.4 2-.3 1.9-.3 3.3 1h3l.7-.1 1.4-.2 2.3-.7 1.1-.7.6-.8 1.2-4 .4-1.3.7-1.4 4.3-4.9 3.2-3 7.2-5.2 3.5-2.1 1.8-1.1 16.1-7.2 4.2-4.2 2.2-2.2 3.8-2.6 4.5-1.9 4-3 .8-1.1 1-3.5 1-.2.7-1.7.3-.5 3.1-2.2.4-.2 12.3-6.2 1.8.3 1-1.5 3.5-.6h.7l.9-.5.7-1.3v-.3l.1-3.4.8-.9.4-2.2.4-.6.4-.5 1-.7-.2-.4z" fill="#d47600"/></g></svg>