<svg height="480" viewBox="0 0 640 480" width="640" xmlns="http://www.w3.org/2000/svg"><g fill="none" fill-rule="evenodd"><path d="m256 0h384v480h-384z" fill="#f00" fill-rule="nonzero"/><path d="m0 0h256v480h-256z" fill="#060" fill-rule="nonzero"/><g fill="#ff0" stroke="#000" stroke-linecap="round" stroke-linejoin="round" stroke-width=".6" transform="translate(149 132)"><path d="m190.5 174.2c-32.3-1-180-93.2-181-108l8.1-13.5c14.7 21.3 165.7 111 180.6 107.8z"/><path d="m15.9 50.8c-2.9 7.8 38.6 33.4 88.4 63.8 49.9 30.3 92.9 49 96 46.4l1.5-2.8c-.6 1-2 1.3-4.3.6-13.5-3.9-48.6-20-92.1-46.4-43.6-26.4-81.4-50.7-87.3-61-.4599067-.9656478-.6663919-2.032488-.6-3.1h-.2l-1.2 2.2zm175.3 123.8c-.5 1-1.6 1-3.5.8-12-1.3-48.6-19.1-91.9-45-50.4-30.2-92-57.6-87.4-64.8l1.2-2.2.2.1c-4 12.2 82.1 61.4 87.2 64.6 49.8 30.8 91.8 48.9 95.5 44.2z"/><path d="m107.2 75.2c32.2-.3 72-4.4 95-13.6l-5-8c-13.5 7.5-53.5 12.5-90.3 13.2-43.4-.4-74.1-4.5-89.5-14.8l-4.6 8.6c28.2 12 57.2 14.5 94.4 14.6"/><path d="m203.5 61.8c-.8 1.3-15.8 6.4-37.8 10.2-14.9 2.3-34.3 4.3-58.6 4.3-18.7931354.0705209-37.5694596-1.1322329-56.2-3.6-23.1-3.6-35-8.6-39.5-10.4l1.1-2.2c12.7 5 24.7 8 38.7 10.2 18.4945791 2.4972316 37.137618 3.7334187 55.8 3.7 19.513298.0204607 39.00086-1.4168724 58.3-4.3 22.5-3.7 34.8-8.4 36.6-10.5l1.6 2.7zm-4.4-8.1c-2.4 2-14.6 6.3-36 9.7-18.479597 2.6735577-37.128007 4.0103613-55.8 4-22 0-40.1-1.6-53.8-3.6-21.8-2.8-33.4-8-37.6-9.4l1.3-2.2c3.3 1.7 14.4 6.2 36.5 9.3 17.7657361 2.3796762 35.6759704 3.5157732 53.6 3.4 18.539013.0057342 37.054102-1.3310953 55.4-4 21.5-3 33.1-8.4 34.9-9.8zm-197.8 60.3c19.8 10.7 63.9 16 105.6 16.4 38 .1 87.4-5.8 105.9-15.6l-.5-10.7c-5.8 9-58.8 17.7-105.8 17.4-47-.4-90.7-7.6-105.3-17v9.5z"/><path d="m213.8 112.5v2.5c-2.8 3.4-20.2 8.4-42 12-21.657916 3.113171-43.520253 4.584032-65.4 4.4-25.7 0-46.2-1.8-62-4.3-15.3144073-1.769727-30.2791144-5.814242-44.4-12v-2.9c9.7 6.4 35.9 11.2 44.7 12.6 15.8 2.4 36.1 4.2 61.7 4.2 26.9 0 48.4-1.9 65-4.4 15.7-2.3 38-8.2 42.4-12.1zm0-9v2.5c-2.8 3.3-20.2 8.3-42 11.9-21.655377 3.146628-43.517727 4.650918-65.4 4.5-25.7 0-46.1-1.9-62-4.3-15.3144073-1.769727-30.2791144-5.814242-44.4-12v-3c9.7 6.5 36 11.2 44.7 12.6 20.4282447 2.992388 41.05416 4.429851 61.7 4.3 26.9 0 48.5-2 65-4.5 15.7-2.2 38-8.1 42.4-12zm-107 68.8c-45.6-.2-84.7-12.4-93-14.4l6 9.4c28.0490867 9.934192 57.6474883 14.776951 87.4 14.3 34.7-1 65-3.7 86.3-14.1l6.2-9.8c-14.5 6.9-64 14.6-93 14.6z"/><path d="m195.9 165.3c-.910501 1.349171-1.84397 2.682699-2.8 4-10 3.6-26 7.4-32.6 8.4-17.710167 3.300079-35.685011 4.973714-53.7 5-40.4-.6-73.5-8.5-89-15.3l-1.3-2.1.2-.4 2.1.9c28.4603277 9.418003 58.2224539 14.31087 88.2 14.5 18.8 0 37.5-2.1 52.6-4.8 23.2-4.7 32.6-8.2 35.5-9.8l.7-.4zm5.3-8.8c-.658471 1.171331-1.325154 2.338026-2 3.5-5.4 2-20 6.2-41.3 9.2-14 1.9-22.7 3.8-50.6 4.3-31.8937981-.320206-63.5915666-5.031127-94.2-14l-1.1-2.5c30.3 8 61.3 13.5 95.4 14 25.5-.5 36.4-2.4 50.3-4.3 24.8-3.8 37.3-8 41-9.1.0023-.066647.0023-.133353 0-.2l2.6-1z"/><path d="m201.8 105.6c.1 30-15.3 57-27.6 68.8-18.166554 17.717827-42.426948 27.808434-67.8 28.2-30.3.5-58.8-19.2-66.5-27.9-15-17-27.1-38.4-27.5-67.4 1.8-32.8 14.7-55.6 33.3-71.3 18.0684445-14.8742915 40.7976767-22.9109514 64.2-22.7 27.623814 1.3392927 53.402285 14.2648357 71 35.6 12.5 15.2 18 31.7 20.9 56.7zm-95.2-102.6c58.231182-.00165844 105.560519 46.9704766 106 105.2.000001 37.762973-20.146306 72.6574-52.85 91.538886-32.703694 18.881487-72.9963064 18.881487-105.7000005 0-32.703694-18.881486-52.85000006-53.775913-52.8499995-91.538886-.1-58 47.3-105.2 105.4-105.2z"/><path d="m106.9 2.5c58.2 0 105.6 47.4 105.6 105.6s-47.4 105.6-105.5 105.6-105.6-47.4-105.6-105.6 47.4-105.6 105.6-105.6zm-103.3 105.5c0 56.8 46.7 103.3 103.3 103.3s103.3-46.5 103.3-103.3-46.7-103.3-103.3-103.3-103.3 46.5-103.3 103.3z"/><path d="m107 11.3c53 0 96.7 43.5 96.7 96.7-.164391 53.353932-43.346266 96.580463-96.7 96.8-53 0-96.7-43.6-96.7-96.8.2191801-53.314884 43.385116-96.4808199 96.7-96.7zm-94.4 96.7c0 52 42.6 94.4 94.4 94.4s94.4-42.5 94.4-94.4c0-52-42.6-94.4-94.4-94.4-52.0446401.2191382-94.1808618 42.3553599-94.4 94.4z"/><path d="m111.3 2h-9.1v212.3h9z"/><path d="m110.3.8h2.3v214.7h-2.2v-214.7zm-9 0h2.4v214.7h-2.3v-214.7z"/><path d="m212.6 112.2v-7.8l-6.4-6-36.3-9.6-52.2-5.3-63 3.2-44.8 10.6-9 6.7v7.9l22.9-10.3 54.4-8.5h52.3l38.4 4.2 26.6 6.4z"/><path d="m107 91.8c24.9 0 49 2.3 68.3 6 19.8 4 33.7 9 38.5 14.5v2.8c-5.8-7-24.5-12-39-15-19-3.6-43-6-67.9-6-26.1 0-50.5 2.6-69.3 6.2-15 3-35.1 9-37.6 14.8v-2.9c1.3-4 16.3-10 37.3-14.3 18.9-3.7 43.3-6.1 69.6-6.1zm0-9.1c24.9 0 49.1 2.4 68.3 6 19.8 4 33.7 9 38.5 14.6v2.7c-5.8-6.9-24.5-12-39-14.9-19-3.7-43-6-67.9-6-23.2085801-.0734563-46.3741165 2.0020686-69.2 6.2-14.5 2.7-35.4 8.9-37.7 14.7v-2.8c1.4-4 16.6-10.3 37.3-14.3 19-3.7 43.3-6.2 69.7-6.2zm-.6-46.2c39.3-.2 73.6 5.5 89.3 13.5l5.7 10c-13.6-7.4-50.6-15-94.9-14-36.1.3-74.7 4-94 14.4l6.8-11.4c15.9-8.3 53.3-12.5 87.1-12.5z"/><path d="m107 44.7c22.4-.1 44 1.2 61.3 4.3 16 3 31.3 7.4 33.5 9.8l1.7 3c-5.3-3.4-18.6-7.3-35.6-10.5s-38.7-4.3-61-4.2c-25.3-.1-45 1.2-61.8 4.2-11.5810325 1.6231038-22.8250324 5.1009777-33.3 10.3l1.7-3.1c6-3 15.3-6.7 31.1-9.6 17.5-3.2 37.4-4.1 62.4-4.2zm0-9c21.4-.2 42.6 1 59.1 4 10.690169 1.5871496 21.035597 4.9680085 30.6 10l2.5 4c-4.2-4.7-20-9.2-34.1-11.6-16.4-2.9-36.7-4-58.1-4.2-22.6.1-43.4 1.5-59.5 4.4-10.289197 1.4337047-20.282399 4.505939-29.6 9.1l2.2-3.3c5.8-3 15.2-5.8 27-8.1 19.8076252-3.1466324 39.845186-4.6185067 59.9-4.4zm52.4 116.3c-17.332845-3.000904-34.912586-4.340312-52.5-4-65.5.8-86.6 13.5-89.2 17.3l-5-8c16.8-12 52.4-18.8 94.6-18.2 21.9.4 40.8 1.9 56.6 5l-4.5 8z"/><path d="m106.6 146.9c18.2.3 36 1 53.3 4.2l-1.2 2.2c-16-3-33.2-4-52-4-24.3-.2-48.7 2.1-70 8.2-6.7 1.9-17.8 6.2-19 9.8l-1.2-2c.4-2.2 7-6.6 19.6-10 24.4-7 47.2-8.3 70.5-8.4zm.8-9.2c19.209787-.019629 38.383941 1.653509 57.3 5l-1.3 2.3c-18.471367-3.388331-37.220875-5.028913-56-4.9-24.2 0-49.9 1.8-73.3 8.6-7.5 2.2-20.6 7-21 10.7l-1.2-2.2c.2-3.4 11.5-7.9 21.7-10.8 23.5-6.9 49.3-8.6 73.8-8.7z"/><path d="m200.4 158.5-7.8 12.3-22.7-20.1-58.6-39.5-66.2-36.3-34.3-11.7 7.3-13.6 2.5-1.3 21.3 5.3 70.4 36.3 40.6 25.6 34.1 24.5 13.9 16z"/><path d="m9.6 63.5c6-4 50.2 15.6 96.6 43.6 46.1 28 90.3 59.6 86.3 65.5l-1.3 2.1-.6.5c.1-.1.8-1 0-3.1-2-6.5-33.4-31.5-85.3-62.9-50.7-30.1-92.9-48.3-97-43.1zm192.4 94.9c3.8-7.6-37.2-38.5-88.1-68.6-52-29.5-89.6-46.9-96.5-41.7l-1.4 2.9c0 .1 0-.2.4-.5 1.2-1 3.3-1 4.2-1 11.8.2 45.5 15.7 92.8 42.8 20.8 12 87.6 55 87.3 67 0 1 .1 1.2-.3 1.8l1.7-2.6z"/></g><g fill-rule="nonzero" transform="translate(192.0006 166.43377)"><path d="m.640002 85.3336c.03196369 16.724708 6.75364352 32.741511 18.666725 44.480139 11.7673423 11.948436 27.8168647 18.706129 44.586806 18.773392 16.8037053-.001212 32.9187322-6.677438 44.80014-18.560058 11.870119-11.802514 18.5492-27.847662 18.560058-44.586806v-84.480264l-126.613729-.213334z" fill="#fff" stroke="#000" stroke-width=".746669"/><path d="m2.986676 85.440267c.04548437 16.042722 6.4967087 31.40278 17.920056 42.6668 11.3564255 11.415941 26.7776938 17.86065 42.880134 17.920056 16.0741814.008855 31.4954333-6.359124 42.880134-17.706722 11.384185-11.281629 17.796094-26.639494 17.813389-42.6668v-82.13359h-121.280379v81.920256zm97.280304-57.280179v52.160163l-.106667 5.440017c.072621 9.6286341-3.7786646 18.871719-10.6667 25.60008-6.7831885 6.806758-15.9905509 10.643159-25.60008 10.6667-10.026698 0-18.880059-4.26668-25.493413-10.880034-6.8067582-6.783189-10.6431592-15.9905509-10.6667-25.60008v-57.60018z" fill="#f00" stroke="#000" stroke-width=".533335"/><g transform="translate(5.33335 4.26668)"><g fill="#ff0"><path d="m5.546684 20.693398c.106667-5.866685 4.26668-7.253356 4.26668-7.253356.106667 0 4.586681 1.493338 4.586681 7.360023h-8.853361"/><path d="m1.920006 13.546709-.746669 6.720021h4.480014c0-5.546684 4.26668-6.40002 4.26668-6.40002.106667 0 4.26668 1.173337 4.373347 6.40002h4.480014l-.853336-6.826688h-16.00005zm-1.06667 6.826688h18.13339c.320001 0 .640002.320001.640002.746669 0 .533335-.320001.853336-.640002.853336h-18.13339c-.320001 0-.640002-.320001-.640002-.853336 0-.426668.320001-.746669.746669-.746669z" stroke="#000" stroke-width=".533335"/><path d="m7.46669 20.26673c0-3.520011 2.453341-4.480014 2.453341-4.480014s2.453341 1.06667 2.453341 4.480014zm-6.186686-9.60003h17.386721c.320001 0 .640002.426668.640002.853336 0 .320001-.320001.640002-.640002.640002h-17.386721c-.320001 0-.640002-.320001-.640002-.746669 0-.320001.320001-.640002.640002-.640002zm.426668 1.600005h16.426718c.320001 0 .640002.320001.640002.746669s-.320001.746669-.640002.746669h-16.533385c-.426668 0-.640002-.320001-.640002-.746669s.213334-.746669.640002-.746669zm5.33335-11.306702h1.280004v.853336h.960003v-.853336h1.386671v.960003h.960003v-1.06667h1.280004v2.13334c0 .426668-.213334.640002-.533335.640002h-4.693348c-.320001 0-.640002-.213334-.640002-.533335zm4.906682 2.880009.320001 6.826688h-4.586681l.320001-6.933355h3.946679z" stroke="#000" stroke-width=".533335"/><path d="m6.40002 7.040022v3.626678h-4.26668v-3.626678z" stroke="#000" stroke-width=".533335"/><path d="m4.26668.640002v3.626678h-4.26668v-3.626678z" stroke="#000" stroke-width=".533335" transform="translate(13.440042 6.40002)"/><path d="m1.386671 4.26668h1.280004v1.06667h.960003v-1.06667h1.280004v1.06667h.960003v-1.06667h1.280004v2.13334c0 .426668-.213334.640002-.533335.640002h-4.586681c-.320001 0-.640002-.320001-.640002-.640002z" stroke="#000" stroke-width=".533335"/><path d="m.320001 0h1.280004v1.06667h.960003v-1.06667h1.280004v1.06667h.960003v-1.06667h1.280004v2.13334c0 .426668-.213334.640002-.533335.640002h-4.586681c-.320001 0-.640002-.320001-.640002-.640002z" stroke="#000" stroke-width=".533335" transform="translate(12.373372 4.26668)"/></g><path d="m9.493363 5.973352c0-.640002.960003-.640002.960003 0v1.706672h-.960003z" fill="#000"/><path d="m3.840012 8.320026c0-.640002.853336-.640002.853336 0v1.280004h-.853336z" fill="#000"/><path d="m.640002.853336c0-.640002.853336-.640002.853336 0v1.280004h-.853336z" fill="#000" transform="translate(14.506712 7.46669)"/><g transform="translate(0 49.386821)"><g fill="#ff0"><path d="m5.546684 20.693398c.106667-5.866685 4.26668-7.253356 4.26668-7.253356.106667 0 4.586681 1.493338 4.586681 7.360023h-8.853361"/><path d="m1.920006 13.546709-.746669 6.720021h4.480014c0-5.546684 4.26668-6.40002 4.26668-6.40002.106667 0 4.26668 1.173337 4.373347 6.40002h4.480014l-.853336-6.826688h-16.00005zm-1.06667 6.826688h18.13339c.320001 0 .640002.320001.640002.746669 0 .533335-.320001.853336-.640002.853336h-18.13339c-.320001 0-.640002-.320001-.640002-.853336 0-.426668.320001-.746669.746669-.746669z" stroke="#000" stroke-width=".533335"/><path d="m7.46669 20.26673c0-3.520011 2.453341-4.480014 2.453341-4.480014s2.453341 1.06667 2.453341 4.480014zm-6.186686-9.60003h17.386721c.320001 0 .640002.426668.640002.853336 0 .320001-.320001.640002-.640002.640002h-17.386721c-.320001 0-.640002-.320001-.640002-.746669 0-.320001.320001-.640002.640002-.640002zm.426668 1.600005h16.426718c.320001 0 .640002.320001.640002.746669s-.320001.746669-.640002.746669h-16.533385c-.426668 0-.640002-.320001-.640002-.746669s.213334-.746669.640002-.746669zm5.33335-11.306702h1.280004v.853336h.960003v-.853336h1.386671v.960003h.960003v-1.06667h1.280004v2.13334c0 .426668-.213334.640002-.533335.640002h-4.693348c-.320001 0-.640002-.213334-.640002-.533335zm4.906682 2.880009.320001 6.826688h-4.586681l.320001-6.933355h3.946679z" stroke="#000" stroke-width=".533335"/><path d="m6.40002 7.040022v3.626678h-4.26668v-3.626678z" stroke="#000" stroke-width=".533335"/><path d="m4.26668.640002v3.626678h-4.26668v-3.626678z" stroke="#000" stroke-width=".533335" transform="translate(13.440042 6.40002)"/><path d="m1.386671 4.26668h1.280004v1.06667h.960003v-1.06667h1.280004v1.06667h.960003v-1.06667h1.280004v2.13334c0 .426668-.213334.640002-.533335.640002h-4.586681c-.320001 0-.640002-.320001-.640002-.640002z" stroke="#000" stroke-width=".533335"/><path d="m.320001 0h1.280004v1.06667h.960003v-1.06667h1.280004v1.06667h.960003v-1.06667h1.280004v2.13334c0 .426668-.213334.640002-.533335.640002h-4.586681c-.320001 0-.640002-.320001-.640002-.640002z" stroke="#000" stroke-width=".533335" transform="translate(12.373372 4.26668)"/></g><path d="m9.493363 5.973352c0-.640002.960003-.640002.960003 0v1.706672h-.960003z" fill="#000"/><path d="m3.840012 8.320026c0-.640002.853336-.640002.853336 0v1.280004h-.853336z" fill="#000"/><path d="m.640002.853336c0-.640002.853336-.640002.853336 0v1.280004h-.853336z" fill="#000" transform="translate(14.506712 7.46669)"/></g><g transform="matrix(.70463421 -.70957074 .70957074 .70463421 6.204889 110.906587)"><g fill="#ff0"><path d="m5.54668401 20.6933981c.106667-5.8666851 4.26668001-7.2533561 4.26668001-7.2533561.106667 0 4.58668098 1.493338 4.58668098 7.3600231h-8.85336099"/><path d="m1.920006 13.546709-.746669 6.7200211h4.48001401c0-5.5466841 4.26668001-6.4000201 4.26668001-6.4000201.10666698 0 4.26667998 1.173337 4.37334698 6.4000201h4.480014l-.853336-6.8266881h-16.00005zm-1.06667 6.8266881h18.13339c.320001 0 .640002.320001.640002.746669 0 .533335-.320001.853336-.640002.853336h-18.13339c-.320001 0-.640002-.320001-.640002-.853336 0-.426668.320001-.746669.746669-.746669z" stroke="#000" stroke-width=".533335"/><path d="m7.46669002 20.2667301c0-3.5200111 2.453341-4.4800141 2.453341-4.4800141s2.45334098 1.06667 2.45334098 4.4800141zm-6.18668602-9.6000301h17.386721c.320001 0 .640002.426668.640002.853336 0 .320001-.320001.640002-.640002.640002h-17.386721c-.320001 0-.640002-.320001-.640002-.746669 0-.320001.320001-.640002.640002-.640002zm.426668 1.600005h16.426718c.320001 0 .640002.320001.640002.746669s-.320001.746669-.640002.746669h-16.533385c-.426668 0-.640002-.320001-.640002-.746669s.213334-.746669.640002-.746669zm5.33335002-11.306702h1.280004v.853336h.960003v-.853336h1.38667098v.960003h.960003v-1.06667h1.280004v2.13334001c0 .426668-.213334.640002-.533335.640002h-4.69334798c-.320001 0-.640002-.213334-.640002-.533335zm4.90668198 2.88000901.320001 6.82668799h-4.58668098l.320001-6.93335499h3.94667898z" stroke="#000" stroke-width=".533335"/><path d="m6.40002002 7.04002202v3.62667798h-4.26668001v-3.62667798z" stroke="#000" stroke-width=".533335"/><path d="m4.26668001.640002v3.62667801h-4.26668001v-3.62667801z" stroke="#000" stroke-width=".533335" transform="translate(13.440042 6.40002)"/><path d="m1.386671 4.26668001h1.28000401v1.06667h.960003v-1.06667h1.280004v1.06667h.960003v-1.06667h1.28000401v2.13334001c0 .426668-.213334.640002-.533335.640002h-4.58668101c-.32000101 0-.64000201-.320001-.64000201-.640002z" stroke="#000" stroke-width=".533335"/><path d="m.320001 0h1.280004v1.06667h.96000301v-1.06667h1.280004v1.06667h.960003v-1.06667h1.28000401v2.13334001c0 .426668-.21333401.640002-.53333501.640002h-4.58668101c-.320001 0-.640002-.320001-.640002-.640002z" stroke="#000" stroke-width=".533335" transform="translate(12.373372 4.26668)"/></g><path d="m9.49336302 5.97335201c0-.640002.96000298-.640002.96000298 0v1.70667201h-.96000298z" fill="#000"/><path d="m3.84001201 8.32002602c0-.640002.853336-.640002.853336 0v1.280004h-.853336z" fill="#000"/><path d="m.640002.853336c0-.640002.853336-.640002.853336 0v1.28000401h-.853336z" fill="#000" transform="translate(14.506712 7.46669)"/></g></g><g transform="translate(54.080169 4.26668)"><g fill="#ff0"><path d="m5.546684 20.693398c.106667-5.866685 4.26668-7.253356 4.26668-7.253356.106667 0 4.586681 1.493338 4.586681 7.360023h-8.853361"/><path d="m1.920006 13.546709-.746669 6.720021h4.480014c0-5.546684 4.26668-6.40002 4.26668-6.40002.106667 0 4.26668 1.173337 4.373347 6.40002h4.480014l-.853336-6.826688h-16.00005zm-1.06667 6.826688h18.13339c.320001 0 .640002.320001.640002.746669 0 .533335-.320001.853336-.640002.853336h-18.13339c-.320001 0-.640002-.320001-.640002-.853336 0-.426668.320001-.746669.746669-.746669z" stroke="#000" stroke-width=".533335"/><path d="m7.46669 20.26673c0-3.520011 2.453341-4.480014 2.453341-4.480014s2.453341 1.06667 2.453341 4.480014zm-6.186686-9.60003h17.386721c.320001 0 .640002.426668.640002.853336 0 .320001-.320001.640002-.640002.640002h-17.386721c-.320001 0-.640002-.320001-.640002-.746669 0-.320001.320001-.640002.640002-.640002zm.426668 1.600005h16.426718c.320001 0 .640002.320001.640002.746669s-.320001.746669-.640002.746669h-16.533385c-.426668 0-.640002-.320001-.640002-.746669s.213334-.746669.640002-.746669zm5.33335-11.306702h1.280004v.853336h.960003v-.853336h1.386671v.960003h.960003v-1.06667h1.280004v2.13334c0 .426668-.213334.640002-.533335.640002h-4.693348c-.320001 0-.640002-.213334-.640002-.533335zm4.906682 2.880009.320001 6.826688h-4.586681l.320001-6.933355h3.946679z" stroke="#000" stroke-width=".533335"/><path d="m6.40002 7.040022v3.626678h-4.26668v-3.626678z" stroke="#000" stroke-width=".533335"/><path d="m4.26668.640002v3.626678h-4.26668v-3.626678z" stroke="#000" stroke-width=".533335" transform="translate(13.440042 6.40002)"/><path d="m1.386671 4.26668h1.280004v1.06667h.960003v-1.06667h1.280004v1.06667h.960003v-1.06667h1.280004v2.13334c0 .426668-.213334.640002-.533335.640002h-4.586681c-.320001 0-.640002-.320001-.640002-.640002z" stroke="#000" stroke-width=".533335"/><path d="m.320001 0h1.280004v1.06667h.960003v-1.06667h1.280004v1.06667h.960003v-1.06667h1.280004v2.13334c0 .426668-.213334.640002-.533335.640002h-4.586681c-.320001 0-.640002-.320001-.640002-.640002z" stroke="#000" stroke-width=".533335" transform="translate(12.373372 4.26668)"/></g><path d="m9.493363 5.973352c0-.640002.960003-.640002.960003 0v1.706672h-.960003z" fill="#000"/><path d="m3.840012 8.320026c0-.640002.853336-.640002.853336 0v1.280004h-.853336z" fill="#000"/><path d="m.640002.853336c0-.640002.853336-.640002.853336 0v1.280004h-.853336z" fill="#000" transform="translate(14.506712 7.46669)"/></g><g transform="matrix(-1 0 0 1 122.453716 4.26668)"><g fill="#ff0"><path d="m5.546684 20.693398c.106667-5.866685 4.26668-7.253356 4.26668-7.253356.106667 0 4.586681 1.493338 4.586681 7.360023h-8.853361"/><path d="m1.920006 13.546709-.746669 6.720021h4.480014c0-5.546684 4.26668-6.40002 4.26668-6.40002.106667 0 4.26668 1.173337 4.373347 6.40002h4.480014l-.853336-6.826688h-16.00005zm-1.06667 6.826688h18.13339c.320001 0 .640002.320001.640002.746669 0 .533335-.320001.853336-.640002.853336h-18.13339c-.320001 0-.640002-.320001-.640002-.853336 0-.426668.320001-.746669.746669-.746669z" stroke="#000" stroke-width=".533335"/><path d="m7.46669 20.26673c0-3.520011 2.453341-4.480014 2.453341-4.480014s2.453341 1.06667 2.453341 4.480014zm-6.186686-9.60003h17.386721c.320001 0 .640002.426668.640002.853336 0 .320001-.320001.640002-.640002.640002h-17.386721c-.320001 0-.640002-.320001-.640002-.746669 0-.320001.320001-.640002.640002-.640002zm.426668 1.600005h16.426718c.320001 0 .640002.320001.640002.746669s-.320001.746669-.640002.746669h-16.533385c-.426668 0-.640002-.320001-.640002-.746669s.213334-.746669.640002-.746669zm5.33335-11.306702h1.280004v.853336h.960003v-.853336h1.386671v.960003h.960003v-1.06667h1.280004v2.13334c0 .426668-.213334.640002-.533335.640002h-4.693348c-.320001 0-.640002-.213334-.640002-.533335zm4.906682 2.880009.320001 6.826688h-4.586681l.320001-6.933355h3.946679z" stroke="#000" stroke-width=".533335"/><path d="m6.40002 7.040022v3.626678h-4.26668v-3.626678z" stroke="#000" stroke-width=".533335"/><path d="m4.26668.640002v3.626678h-4.26668v-3.626678z" stroke="#000" stroke-width=".533335" transform="translate(13.440042 6.40002)"/><path d="m1.386671 4.26668h1.280004v1.06667h.960003v-1.06667h1.280004v1.06667h.960003v-1.06667h1.280004v2.13334c0 .426668-.213334.640002-.533335.640002h-4.586681c-.320001 0-.640002-.320001-.640002-.640002z" stroke="#000" stroke-width=".533335"/><path d="m.320001 0h1.280004v1.06667h.960003v-1.06667h1.280004v1.06667h.960003v-1.06667h1.280004v2.13334c0 .426668-.213334.640002-.533335.640002h-4.586681c-.320001 0-.640002-.320001-.640002-.640002z" stroke="#000" stroke-width=".533335" transform="translate(12.373372 4.26668)"/></g><path d="m9.493363 5.973352c0-.640002.960003-.640002.960003 0v1.706672h-.960003z" fill="#000"/><path d="m3.840012 8.320026c0-.640002.853336-.640002.853336 0v1.280004h-.853336z" fill="#000"/><path d="m.640002.853336c0-.640002.853336-.640002.853336 0v1.280004h-.853336z" fill="#000" transform="translate(14.506712 7.46669)"/><g transform="translate(0 49.386821)"><g fill="#ff0"><path d="m5.546684 20.693398c.106667-5.866685 4.26668-7.253356 4.26668-7.253356.106667 0 4.586681 1.493338 4.586681 7.360023h-8.853361"/><path d="m1.920006 13.546709-.746669 6.720021h4.480014c0-5.546684 4.26668-6.40002 4.26668-6.40002.106667 0 4.26668 1.173337 4.373347 6.40002h4.480014l-.853336-6.826688h-16.00005zm-1.06667 6.826688h18.13339c.320001 0 .640002.320001.640002.746669 0 .533335-.320001.853336-.640002.853336h-18.13339c-.320001 0-.640002-.320001-.640002-.853336 0-.426668.320001-.746669.746669-.746669z" stroke="#000" stroke-width=".533335"/><path d="m7.46669 20.26673c0-3.520011 2.453341-4.480014 2.453341-4.480014s2.453341 1.06667 2.453341 4.480014zm-6.186686-9.60003h17.386721c.320001 0 .640002.426668.640002.853336 0 .320001-.320001.640002-.640002.640002h-17.386721c-.320001 0-.640002-.320001-.640002-.746669 0-.320001.320001-.640002.640002-.640002zm.426668 1.600005h16.426718c.320001 0 .640002.320001.640002.746669s-.320001.746669-.640002.746669h-16.533385c-.426668 0-.640002-.320001-.640002-.746669s.213334-.746669.640002-.746669zm5.33335-11.306702h1.280004v.853336h.960003v-.853336h1.386671v.960003h.960003v-1.06667h1.280004v2.13334c0 .426668-.213334.640002-.533335.640002h-4.693348c-.320001 0-.640002-.213334-.640002-.533335zm4.906682 2.880009.320001 6.826688h-4.586681l.320001-6.933355h3.946679z" stroke="#000" stroke-width=".533335"/><path d="m6.40002 7.040022v3.626678h-4.26668v-3.626678z" stroke="#000" stroke-width=".533335"/><path d="m4.26668.640002v3.626678h-4.26668v-3.626678z" stroke="#000" stroke-width=".533335" transform="translate(13.440042 6.40002)"/><path d="m1.386671 4.26668h1.280004v1.06667h.960003v-1.06667h1.280004v1.06667h.960003v-1.06667h1.280004v2.13334c0 .426668-.213334.640002-.533335.640002h-4.586681c-.320001 0-.640002-.320001-.640002-.640002z" stroke="#000" stroke-width=".533335"/><path d="m.320001 0h1.280004v1.06667h.960003v-1.06667h1.280004v1.06667h.960003v-1.06667h1.280004v2.13334c0 .426668-.213334.640002-.533335.640002h-4.586681c-.320001 0-.640002-.320001-.640002-.640002z" stroke="#000" stroke-width=".533335" transform="translate(12.373372 4.26668)"/></g><path d="m9.493363 5.973352c0-.640002.960003-.640002.960003 0v1.706672h-.960003z" fill="#000"/><path d="m3.840012 8.320026c0-.640002.853336-.640002.853336 0v1.280004h-.853336z" fill="#000"/><path d="m.640002.853336c0-.640002.853336-.640002.853336 0v1.280004h-.853336z" fill="#000" transform="translate(14.506712 7.46669)"/></g><g transform="matrix(.70463421 -.70957074 .70957074 .70463421 6.204889 110.906587)"><g fill="#ff0"><path d="m5.54668401 20.6933981c.106667-5.8666851 4.26668001-7.2533561 4.26668001-7.2533561.106667 0 4.58668098 1.493338 4.58668098 7.3600231h-8.85336099"/><path d="m1.920006 13.546709-.746669 6.7200211h4.48001401c0-5.5466841 4.26668001-6.4000201 4.26668001-6.4000201.10666698 0 4.26667998 1.173337 4.37334698 6.4000201h4.480014l-.853336-6.8266881h-16.00005zm-1.06667 6.8266881h18.13339c.320001 0 .640002.320001.640002.746669 0 .533335-.320001.853336-.640002.853336h-18.13339c-.320001 0-.640002-.320001-.640002-.853336 0-.426668.320001-.746669.746669-.746669z" stroke="#000" stroke-width=".533335"/><path d="m7.46669002 20.2667301c0-3.5200111 2.453341-4.4800141 2.453341-4.4800141s2.45334098 1.06667 2.45334098 4.4800141zm-6.18668602-9.6000301h17.386721c.320001 0 .640002.426668.640002.853336 0 .320001-.320001.640002-.640002.640002h-17.386721c-.320001 0-.640002-.320001-.640002-.746669 0-.320001.320001-.640002.640002-.640002zm.426668 1.600005h16.426718c.320001 0 .640002.320001.640002.746669s-.320001.746669-.640002.746669h-16.533385c-.426668 0-.640002-.320001-.640002-.746669s.213334-.746669.640002-.746669zm5.33335002-11.306702h1.280004v.853336h.960003v-.853336h1.38667098v.960003h.960003v-1.06667h1.280004v2.13334001c0 .426668-.213334.640002-.533335.640002h-4.69334798c-.320001 0-.640002-.213334-.640002-.533335zm4.90668198 2.88000901.320001 6.82668799h-4.58668098l.320001-6.93335499h3.94667898z" stroke="#000" stroke-width=".533335"/><path d="m6.40002002 7.04002202v3.62667798h-4.26668001v-3.62667798z" stroke="#000" stroke-width=".533335"/><path d="m4.26668001.640002v3.62667801h-4.26668001v-3.62667801z" stroke="#000" stroke-width=".533335" transform="translate(13.440042 6.40002)"/><path d="m1.386671 4.26668001h1.28000401v1.06667h.960003v-1.06667h1.280004v1.06667h.960003v-1.06667h1.28000401v2.13334001c0 .426668-.213334.640002-.533335.640002h-4.58668101c-.32000101 0-.64000201-.320001-.64000201-.640002z" stroke="#000" stroke-width=".533335"/><path d="m.320001 0h1.280004v1.06667h.96000301v-1.06667h1.280004v1.06667h.960003v-1.06667h1.28000401v2.13334001c0 .426668-.21333401.640002-.53333501.640002h-4.58668101c-.320001 0-.640002-.320001-.640002-.640002z" stroke="#000" stroke-width=".533335" transform="translate(12.373372 4.26668)"/></g><path d="m9.49336302 5.97335201c0-.640002.96000298-.640002.96000298 0v1.70667201h-.96000298z" fill="#000"/><path d="m3.84001201 8.32002602c0-.640002.853336-.640002.853336 0v1.280004h-.853336z" fill="#000"/><path d="m.640002.853336c0-.640002.853336-.640002.853336 0v1.28000401h-.853336z" fill="#000" transform="translate(14.506712 7.46669)"/></g></g><g transform="translate(55.46684 64.0002)"><path d="m.640002 12.160038c-.0193053 2.2513305.819828 4.4254486 2.346674 6.080019 1.44041627 1.6106217 3.49268005 2.5399487 5.653351 2.560008 2.240007 0 4.26668-1.06667 5.653351-2.560008 1.526846-1.6545704 2.3659793-3.8286885 2.346674-6.080019v-11.520036h-16.00005z" fill="#039"/><g fill="#fff"><circle cx="4.373347" cy="5.013349" r="1.600005"/><circle cx="13.226708" cy="5.013349" r="1.600005"/><circle cx="8.746694" cy="9.280029" r="1.600005"/><circle cx="4.373347" cy="13.760043" r="1.600005"/><circle cx="13.226708" cy="13.760043" r="1.600005"/></g></g><g transform="translate(55.46684 36.26678)"><path d="m.640002 12.160038c-.0193053 2.2513305.819828 4.4254486 2.346674 6.080019 1.44041627 1.6106217 3.49268005 2.5399487 5.653351 2.560008 2.240007 0 4.26668-1.06667 5.653351-2.560008 1.526846-1.6545704 2.3659793-3.8286885 2.346674-6.080019v-11.520036h-16.00005z" fill="#039"/><g fill="#fff"><circle cx="4.373347" cy="5.013349" r="1.600005"/><circle cx="13.226708" cy="5.013349" r="1.600005"/><circle cx="8.746694" cy="9.280029" r="1.600005"/><circle cx="4.373347" cy="13.760043" r="1.600005"/><circle cx="13.226708" cy="13.760043" r="1.600005"/></g></g><g transform="translate(33.280104 64.0002)"><path d="m.640002 12.160038c-.0193053 2.2513305.819828 4.4254486 2.346674 6.080019 1.44041627 1.6106217 3.49268005 2.5399487 5.653351 2.560008 2.240007 0 4.26668-1.06667 5.653351-2.560008 1.526846-1.6545704 2.3659793-3.8286885 2.346674-6.080019v-11.520036h-16.00005z" fill="#039"/><g fill="#fff"><circle cx="4.373347" cy="5.013349" r="1.600005"/><circle cx="13.226708" cy="5.013349" r="1.600005"/><circle cx="8.746694" cy="9.280029" r="1.600005"/><circle cx="4.373347" cy="13.760043" r="1.600005"/><circle cx="13.226708" cy="13.760043" r="1.600005"/></g></g><g transform="translate(77.653576 64.0002)"><path d="m.640002 12.160038c-.0193053 2.2513305.819828 4.4254486 2.346674 6.080019 1.44041627 1.6106217 3.49268005 2.5399487 5.653351 2.560008 2.240007 0 4.26668-1.06667 5.653351-2.560008 1.526846-1.6545704 2.3659793-3.8286885 2.346674-6.080019v-11.520036h-16.00005z" fill="#039"/><g fill="#fff"><circle cx="4.373347" cy="5.013349" r="1.600005"/><circle cx="13.226708" cy="5.013349" r="1.600005"/><circle cx="8.746694" cy="9.280029" r="1.600005"/><circle cx="4.373347" cy="13.760043" r="1.600005"/><circle cx="13.226708" cy="13.760043" r="1.600005"/></g></g><g transform="translate(55.46684 91.520286)"><path d="m.640002 12.160038c-.0193053 2.2513305.819828 4.4254486 2.346674 6.080019 1.44041627 1.6106217 3.49268005 2.5399487 5.653351 2.560008 2.240007 0 4.26668-1.06667 5.653351-2.560008 1.526846-1.6545704 2.3659793-3.8286885 2.346674-6.080019v-11.520036h-16.00005z" fill="#039"/><g fill="#fff"><circle cx="4.373347" cy="5.013349" r="1.600005"/><circle cx="13.226708" cy="5.013349" r="1.600005"/><circle cx="8.746694" cy="9.280029" r="1.600005"/><circle cx="4.373347" cy="13.760043" r="1.600005"/><circle cx="13.226708" cy="13.760043" r="1.600005"/></g></g></g></g></svg>